<svg width="25" height="21" viewBox="0 0 25 21" fill="none" xmlns="http://www.w3.org/2000/svg">
<path fill-rule="evenodd" clip-rule="evenodd" d="M0.800049 2.11431C0.800049 1.65965 0.98066 1.22362 1.30215 0.902127C1.62364 0.580636 2.05968 0.400024 2.51433 0.400024H23.0858C23.5404 0.400024 23.9765 0.580636 24.2979 0.902127C24.6194 1.22362 24.8 1.65965 24.8 2.11431C24.8 2.56897 24.6194 3.005 24.2979 3.32649C23.9765 3.64798 23.5404 3.8286 23.0858 3.8286H2.51433C2.05968 3.8286 1.62364 3.64798 1.30215 3.32649C0.98066 3.005 0.800049 2.56897 0.800049 2.11431ZM0.800049 10.6857C0.800049 10.2311 0.98066 9.79505 1.30215 9.47356C1.62364 9.15207 2.05968 8.97145 2.51433 8.97145H12.8C13.2547 8.97145 13.6907 9.15207 14.0122 9.47356C14.3337 9.79505 14.5143 10.2311 14.5143 10.6857C14.5143 11.1404 14.3337 11.5764 14.0122 11.8979C13.6907 12.2194 13.2547 12.4 12.8 12.4H2.51433C2.05968 12.4 1.62364 12.2194 1.30215 11.8979C0.98066 11.5764 0.800049 11.1404 0.800049 10.6857ZM0.800049 19.2572C0.800049 18.8025 0.98066 18.3665 1.30215 18.045C1.62364 17.7235 2.05968 17.5429 2.51433 17.5429H23.0858C23.5404 17.5429 23.9765 17.7235 24.2979 18.045C24.6194 18.3665 24.8 18.8025 24.8 19.2572C24.8 19.7118 24.6194 20.1479 24.2979 20.4694C23.9765 20.7908 23.5404 20.9715 23.0858 20.9715H2.51433C2.05968 20.9715 1.62364 20.7908 1.30215 20.4694C0.98066 20.1479 0.800049 19.7118 0.800049 19.2572Z" fill="black"/>
</svg>
