<svg width="20" height="20" viewBox="0 0 20 20" fill="none" xmlns="http://www.w3.org/2000/svg">
<path fill-rule="evenodd" clip-rule="evenodd" d="M1.31472 18.5411C0.993231 18.22 0.81262 17.7845 0.81262 17.3304C0.81262 16.8763 0.993231 16.4408 1.31472 16.1198L15.8609 1.59145C16.1824 1.27035 16.6184 1.08996 17.0731 1.08996C17.5278 1.08996 17.9638 1.27035 18.2853 1.59145C18.6068 1.91254 18.7874 2.34804 18.7874 2.80214C18.7874 3.25624 18.6068 3.69174 18.2853 4.01283L3.73909 18.5411C3.4176 18.8622 2.98156 19.0426 2.52691 19.0426C2.07225 19.0426 1.63621 18.8622 1.31472 18.5411Z" fill="black"/>
<path fill-rule="evenodd" clip-rule="evenodd" d="M18.2854 18.5411C18.6069 18.22 18.7875 17.7845 18.7875 17.3304C18.7875 16.8763 18.6069 16.4408 18.2854 16.1198L3.73918 1.59145C3.41769 1.27035 2.98165 1.08996 2.527 1.08996C2.07234 1.08996 1.6363 1.27035 1.31481 1.59145C0.993322 1.91254 0.81271 2.34804 0.81271 2.80214C0.812711 3.25624 0.993322 3.69174 1.31481 4.01283L15.861 18.5411C16.1825 18.8622 16.6185 19.0426 17.0732 19.0426C17.5278 19.0426 17.9639 18.8622 18.2854 18.5411Z" fill="black"/>
</svg>
