<svg width="42" height="25" viewBox="0 0 42 25" fill="none" xmlns="http://www.w3.org/2000/svg">
<path d="M9.01262 18.6667H3.72763L3.51763 19.7342C3.44763 20.1192 3.55263 20.5217 3.79763 20.8192C4.04263 21.1167 4.42763 21.2917 4.81263 21.2917H8.82012C8.68245 20.4135 8.74831 19.5154 9.01262 18.6667ZM27.7026 0.781696C27.5826 0.627338 27.4286 0.502799 27.2525 0.417801C27.0764 0.332803 26.8831 0.289645 26.6876 0.291696H8.31262C8.00697 0.293728 7.71134 0.400978 7.47549 0.595399C7.23963 0.78982 7.07794 1.05955 7.01762 1.35919L6.89512 2.04169H10.9376C12.6176 2.04169 14.0001 3.42419 14.0001 5.10419C14.0001 6.22419 13.3876 7.18669 12.4951 7.72919C13.3876 8.27169 14.0001 9.23419 14.0001 10.3542C14.0001 11.4742 13.3876 12.4367 12.4951 12.9792C13.0376 13.3117 13.4751 13.8017 13.7376 14.3967C14.6226 14.2307 15.5334 14.2616 16.4051 14.4873C17.2768 14.713 18.0881 15.1279 18.7814 15.7026C19.4747 16.2772 20.0329 16.9975 20.4163 17.8123C20.7998 18.627 20.9991 19.5162 21.0001 20.4167C21.0001 20.7142 20.9826 21.0117 20.9301 21.2917H22.7501C23.3626 21.2917 23.9051 20.8542 24.0276 20.2592L27.9651 1.88419C28.0526 1.49919 27.9651 1.0967 27.7026 0.781696ZM33.6876 5.54169H29.9426C29.6418 5.54198 29.35 5.64424 29.1148 5.83176C28.8796 6.01929 28.7149 6.281 28.6476 6.57419L25.8476 19.6992C25.7601 20.0842 25.8476 20.4867 26.1101 20.8017C26.3551 21.1167 26.7226 21.2917 27.1251 21.2917H28.0701C28.0176 21.0117 28.0001 20.7142 28.0001 20.4167C28.0001 17.0392 30.7476 14.2917 34.1251 14.2917C37.5026 14.2917 40.2501 17.0392 40.2501 20.4167C40.2501 20.6092 40.2501 20.7842 40.2151 20.9767C40.4426 20.8017 40.6001 20.5567 40.6526 20.2592L41.9651 14.1342C41.9826 14.0467 42.0001 13.9417 42.0001 13.8542C42.0001 9.26919 38.2726 5.54169 33.6876 5.54169Z" fill="#F9963E"/>
<path d="M10.9375 6.41675H4.81249C4.4644 6.41675 4.13056 6.27846 3.88442 6.03232C3.63828 5.78618 3.5 5.45234 3.5 5.10425C3.5 4.75615 3.63828 4.42231 3.88442 4.17617C4.13056 3.93003 4.4644 3.79175 4.81249 3.79175H10.9375C11.2856 3.79175 11.6194 3.93003 11.8656 4.17617C12.1117 4.42231 12.25 4.75615 12.25 5.10425C12.25 5.45234 12.1117 5.78618 11.8656 6.03232C11.6194 6.27846 11.2856 6.41675 10.9375 6.41675ZM10.9375 11.6667H3.0625C2.7144 11.6667 2.38056 11.5285 2.13442 11.2823C1.88828 11.0362 1.75 10.7023 1.75 10.3542C1.75 10.0061 1.88828 9.67231 2.13442 9.42616C2.38056 9.18002 2.7144 9.04174 3.0625 9.04174H10.9375C11.2856 9.04174 11.6194 9.18002 11.8656 9.42616C12.1117 9.67231 12.25 10.0061 12.25 10.3542C12.25 10.7023 12.1117 11.0362 11.8656 11.2823C11.6194 11.5285 11.2856 11.6667 10.9375 11.6667ZM10.9375 16.9167H1.3125C0.964402 16.9167 0.630563 16.7785 0.384422 16.5323C0.138281 16.2862 0 15.9523 0 15.6042C0 15.2561 0.138281 14.9223 0.384422 14.6762C0.630563 14.43 0.964402 14.2917 1.3125 14.2917H10.9375C11.2856 14.2917 11.6194 14.43 11.8656 14.6762C12.1117 14.9223 12.25 15.2561 12.25 15.6042C12.25 15.9523 12.1117 16.2862 11.8656 16.5323C11.6194 16.7785 11.2856 16.9167 10.9375 16.9167ZM34.125 24.7917C31.7135 24.7917 29.75 22.83 29.75 20.4167C29.75 18.0035 31.7135 16.0417 34.125 16.0417C36.5365 16.0417 38.5 18.0035 38.5 20.4167C38.5 22.83 36.5365 24.7917 34.125 24.7917ZM14.875 24.7917C12.4635 24.7917 10.5 22.83 10.5 20.4167C10.5 18.0035 12.4635 16.0417 14.875 16.0417C17.2865 16.0417 19.25 18.0035 19.25 20.4167C19.25 22.83 17.2865 24.7917 14.875 24.7917Z" fill="#F9963E"/>
</svg>
