<svg width="12" height="12" viewBox="0 0 12 12" fill="none" xmlns="http://www.w3.org/2000/svg">
<path d="M10.6475 4.9868H6.92948V1.26876C6.92948 0.75567 6.51398 0.339233 5.99995 0.339233C5.48591 0.339233 5.07041 0.75567 5.07041 1.26876V4.9868H1.35238C0.838352 4.9868 0.422852 5.40323 0.422852 5.91633C0.422852 6.42942 0.838352 6.84586 1.35238 6.84586H5.07041V10.5639C5.07041 11.077 5.48591 11.4934 5.99995 11.4934C6.51398 11.4934 6.92948 11.077 6.92948 10.5639V6.84586H10.6475C11.1615 6.84586 11.577 6.42942 11.577 5.91633C11.577 5.40323 11.1615 4.9868 10.6475 4.9868Z" fill="#9FA5AD"/>
</svg>
