<svg width="30" height="31" viewBox="0 0 30 31" fill="none" xmlns="http://www.w3.org/2000/svg">
<path d="M15 0.97168C6.71625 0.97168 0 7.67967 0 15.9532C0 24.2268 6.71625 30.9348 15 30.9348C23.2838 30.9348 30 24.2268 30 15.9532C30 7.67967 23.2838 0.97168 15 0.97168ZM22.5 24.3804C13.7119 24.3804 6.5625 17.2398 6.5625 8.46245C6.5625 7.94559 6.9825 7.52611 7.5 7.52611H10.9613C11.4788 7.52611 11.8988 7.94559 11.8988 8.46245C11.8988 10.0805 12.2513 11.6217 12.9469 13.0412C13.0015 13.1519 13.0334 13.2723 13.0408 13.3955C13.0483 13.5186 13.031 13.642 12.99 13.7584C12.9499 13.8752 12.887 13.9828 12.8049 14.0751C12.7229 14.1673 12.6232 14.2424 12.5119 14.2959L11.1131 14.9701C12.2775 16.9944 13.9575 18.6743 15.9825 19.8335L16.6575 18.4383C16.7663 18.2136 16.9594 18.0432 17.1956 17.9608C17.4319 17.8802 17.6906 17.8952 17.9137 18.0038C19.3387 18.6986 20.88 19.0507 22.4981 19.0507C23.0156 19.0507 23.4356 19.4701 23.4356 19.987V23.444H23.4375C23.4375 23.9609 23.0175 24.3804 22.5 24.3804Z" fill="#D2001F"/>
</svg>
