<svg width="41" height="40" viewBox="0 0 41 40" fill="none" xmlns="http://www.w3.org/2000/svg">
<path d="M25.092 18.5319L21.156 36.7359C20.992 37.5559 20.172 38.2119 19.352 38.3759C18.532 38.5399 17.548 38.0479 17.056 37.2279L14.76 32.9639L8.36399 39.3599C7.54399 40.1799 6.06799 40.1799 5.24799 39.3599L1.31199 35.4239C0.491989 34.6039 0.491989 33.1279 1.31199 32.3079L7.87199 26.2399L3.77199 23.9439C2.95199 23.4519 2.45999 22.6319 2.62399 21.6479C2.78799 20.6639 3.44399 20.0079 4.26399 19.8439L22.468 16.0719C23.944 15.7439 25.42 17.2199 25.092 18.5319ZM22.96 9.18389C21.976 9.18389 21.32 8.36389 21.32 7.54389V2.62389C21.32 1.63989 22.14 0.983887 22.96 0.983887C23.944 0.983887 24.6 1.80389 24.6 2.62389V7.54389C24.6 8.36389 23.944 9.18389 22.96 9.18389ZM29.028 9.34789L32.636 5.90389C33.292 5.08389 34.44 5.08389 35.096 5.90389C35.752 6.55989 35.752 7.54389 35.096 8.19989L31.652 11.6439C30.996 12.2999 29.848 12.2999 29.192 11.6439C28.372 11.1519 28.372 10.0039 29.028 9.34789ZM40.016 17.8759C40.016 18.8599 39.196 19.5159 38.376 19.5159H33.456C32.472 19.5159 31.816 18.6959 31.816 17.8759C31.816 17.0559 32.636 16.2359 33.456 16.2359H38.376C39.36 16.2359 40.016 17.0559 40.016 17.8759ZM31.488 24.1079L34.932 27.5519C35.588 28.2079 35.588 29.3559 34.932 30.0119C34.276 30.6679 33.128 30.6679 32.472 30.0119L29.028 26.5679C28.372 25.9119 28.372 24.7639 29.028 24.1079C29.848 23.4519 30.832 23.4519 31.488 24.1079ZM14.268 11.8079L10.824 8.19989C10.168 7.54389 10.168 6.39589 10.824 5.73989C11.48 5.08389 12.628 5.08389 13.284 5.73989L16.728 9.18389C17.384 9.83989 17.384 10.9879 16.728 11.6439C16.072 12.4639 14.924 12.4639 14.268 11.8079Z" fill="#966137"/>
</svg>
