<svg width="41" height="38" viewBox="0 0 41 38" fill="none" xmlns="http://www.w3.org/2000/svg">
<path d="M40.221 12.4967C39.9579 11.2303 38.2948 10.9141 37.5846 11.9965L36.8127 13.1709C34.3215 5.50618 27.0851 0.125613 18.8756 0.125613C16.3315 0.116315 13.8122 0.62574 11.4717 1.62277C9.13109 2.6198 7.01833 4.08351 5.26244 5.92449C1.67157 9.66199 -0.191432 14.5811 0.015568 19.7762C0.409443 29.6145 8.43069 37.561 18.2761 37.8672C27.4071 38.169 35.4988 31.8469 37.3503 22.8582C37.3901 22.6665 37.3916 22.4689 37.355 22.2766C37.3184 22.0843 37.2442 21.901 37.1367 21.7374C37.0293 21.5737 36.8906 21.4328 36.7287 21.3228C36.5668 21.2127 36.3848 21.1356 36.1931 21.0959C36.0014 21.0561 35.8038 21.0545 35.6115 21.0912C35.4192 21.1278 35.2359 21.202 35.0723 21.3095C34.9086 21.4169 34.7677 21.5555 34.6577 21.7174C34.5476 21.8793 34.4705 22.0613 34.4308 22.253C32.861 29.8143 26.1148 35.1187 18.3696 34.8887C10.2189 34.6342 3.32182 27.8018 2.99551 19.6569C2.90001 17.514 3.24235 15.3741 4.00161 13.368C4.76088 11.3618 5.92113 9.53145 7.41151 7.98874C8.89032 6.43866 10.6696 5.20632 12.6407 4.36698C14.6118 3.52763 16.7332 3.09891 18.8756 3.10699C25.57 3.10699 31.4939 7.35624 33.7681 13.4857L32.9631 12.9567C31.8806 12.2466 30.4805 13.1982 30.7436 14.4661C30.8226 14.8427 31.0469 15.1734 31.3689 15.3861L35.3738 18.0124C35.5332 18.1174 35.7118 18.1898 35.8993 18.2257C36.0868 18.2616 36.2795 18.2601 36.4665 18.2214C36.6534 18.1826 36.8308 18.1074 36.9887 18C37.1465 17.8927 37.2816 17.7552 37.3863 17.5955L40.0126 13.5907C40.1174 13.4312 40.1898 13.2526 40.2255 13.0652C40.2613 12.8777 40.2598 12.685 40.221 12.4982V12.4967Z" fill="white"/>
<path d="M18.8741 7.98303C15.9525 7.98379 13.1507 9.14475 11.0848 11.2107C9.01884 13.2766 7.85788 16.0784 7.85712 19C7.85712 25.0807 12.7921 30.017 18.8741 30.017C24.9562 30.017 29.9055 25.0807 29.9055 19C29.9055 12.9194 24.9562 7.98303 18.8741 7.98303ZM22.0337 20.4893H18.8756C18.4805 20.4885 18.1019 20.3315 17.8223 20.0524C17.5427 19.7734 17.3849 19.395 17.3834 19V15.7053C17.3834 14.8859 18.0533 14.2146 18.8741 14.2146C19.6949 14.2146 20.3648 14.8845 20.3648 15.7053V17.5093H22.0337C22.8531 17.5093 23.5244 18.1792 23.5244 19C23.5233 19.395 23.3659 19.7735 23.0866 20.0528C22.8072 20.3322 22.4287 20.4896 22.0337 20.4907V20.4893Z" fill="white"/>
</svg>
