<svg width="32" height="32" viewBox="0 0 32 32" fill="none" xmlns="http://www.w3.org/2000/svg">
<path d="M31.568 10.5093L16.568 0.175942C16.401 0.0613396 16.2032 0 16.0007 0C15.7981 0 15.6003 0.0613396 15.4333 0.175942L0.433334 10.5093C0.299614 10.6011 0.190276 10.7241 0.114773 10.8677C0.039271 11.0113 -0.000122219 11.1711 2.84845e-07 11.3333V30.6666C2.84845e-07 31.0202 0.140476 31.3594 0.390525 31.6094C0.640573 31.8595 0.979712 31.9999 1.33333 31.9999H4V15.9999C4 15.6463 4.14048 15.3072 4.39052 15.0571C4.64057 14.8071 4.97971 14.6666 5.33333 14.6666H26.6667C27.0203 14.6666 27.3594 14.8071 27.6095 15.0571C27.8595 15.3072 28 15.6463 28 15.9999V31.9999H30.6667C31.0203 31.9999 31.3594 31.8595 31.6095 31.6094C31.8595 31.3594 32 31.0202 32 30.6666V11.3333C32.0002 11.1712 31.9609 11.0115 31.8857 10.868C31.8104 10.7244 31.7014 10.6013 31.568 10.5093Z" fill="#F9963E"/>
<path d="M12.3334 25.3334V26.3334C12.3334 26.5986 12.228 26.8529 12.0405 27.0405C11.8529 27.228 11.5986 27.3334 11.3334 27.3334C11.0682 27.3334 10.8138 27.228 10.6263 27.0405C10.4387 26.8529 10.3334 26.5986 10.3334 26.3334V25.3334H8.00004C7.82323 25.3334 7.65366 25.4036 7.52864 25.5286C7.40361 25.6537 7.33337 25.8232 7.33337 26V31.3334C7.33337 31.5102 7.40361 31.6798 7.52864 31.8048C7.65366 31.9298 7.82323 32 8.00004 32H14.6667C14.8435 32 15.0131 31.9298 15.1381 31.8048C15.2631 31.6798 15.3334 31.5102 15.3334 31.3334V26C15.3334 25.8232 15.2631 25.6537 15.1381 25.5286C15.0131 25.4036 14.8435 25.3334 14.6667 25.3334H12.3334ZM21.6667 25.3334V26.3334C21.6667 26.5986 21.5614 26.8529 21.3738 27.0405C21.1863 27.228 20.9319 27.3334 20.6667 27.3334C20.4015 27.3334 20.1471 27.228 19.9596 27.0405C19.7721 26.8529 19.6667 26.5986 19.6667 26.3334V25.3334H17.3334C17.1566 25.3334 16.987 25.4036 16.862 25.5286C16.7369 25.6537 16.6667 25.8232 16.6667 26V31.3334C16.6667 31.5102 16.7369 31.6798 16.862 31.8048C16.987 31.9298 17.1566 32 17.3334 32H24C24.1769 32 24.3464 31.9298 24.4714 31.8048C24.5965 31.6798 24.6667 31.5102 24.6667 31.3334V26C24.6667 25.8232 24.5965 25.6537 24.4714 25.5286C24.3464 25.4036 24.1769 25.3334 24 25.3334H21.6667ZM17 17.3334V18.3334C17 18.5986 16.8947 18.8529 16.7071 19.0405C16.5196 19.228 16.2653 19.3334 16 19.3334C15.7348 19.3334 15.4805 19.228 15.2929 19.0405C15.1054 18.8529 15 18.5986 15 18.3334V17.3334H12.6667C12.4899 17.3334 12.3203 17.4036 12.1953 17.5286C12.0703 17.6537 12 17.8232 12 18V23.3334C12 23.5102 12.0703 23.6798 12.1953 23.8048C12.3203 23.9298 12.4899 24 12.6667 24H19.3334C19.5102 24 19.6798 23.9298 19.8048 23.8048C19.9298 23.6798 20 23.5102 20 23.3334V18C20 17.8232 19.9298 17.6537 19.8048 17.5286C19.6798 17.4036 19.5102 17.3334 19.3334 17.3334H17Z" fill="#F9963E"/>
</svg>
