<svg width="25" height="31" viewBox="0 0 25 31" fill="none" xmlns="http://www.w3.org/2000/svg">
<path d="M22.6955 14.0546C22.3013 13.5404 21.8214 13.0947 21.3757 12.6491C20.2274 11.6207 18.9247 10.8837 17.8278 9.80392C15.274 7.30152 14.7084 3.17085 16.3366 0C14.7084 0.394214 13.2858 1.28548 12.0689 2.26244C7.62966 5.8275 5.88141 12.1178 7.97246 17.5168C8.04102 17.6882 8.10958 17.8596 8.10958 18.0824C8.10958 18.4595 7.85248 18.8023 7.50969 18.9394C7.11547 19.1108 6.70412 19.0079 6.37847 18.7337C6.28061 18.6528 6.19915 18.5539 6.13851 18.4423C4.20172 15.9914 3.89321 12.4777 5.19582 9.6668C2.33349 11.9978 0.773777 15.9399 0.996594 19.6593C1.09943 20.5162 1.20227 21.3732 1.49365 22.2302C1.7336 23.2586 2.19637 24.287 2.71057 25.1954C4.56166 28.1606 7.76678 30.2859 11.2119 30.7144C14.8798 31.1771 18.8048 30.5087 21.6157 27.972C24.7522 25.1268 25.8492 20.5677 24.2381 16.6598L24.0152 16.2142C23.6553 15.4257 22.6955 14.0546 22.6955 14.0546ZM17.2793 24.8526C16.7994 25.2639 16.011 25.7096 15.394 25.881C13.4743 26.5666 11.5547 25.6067 10.4234 24.4755C12.4631 23.9956 13.68 22.4873 14.0399 20.9619C14.3313 19.5907 13.7828 18.4595 13.56 17.1397C13.3543 15.8714 13.3886 14.7916 13.8514 13.6089C14.177 14.2602 14.5198 14.9116 14.9312 15.4257C16.2509 17.1397 18.3248 17.8939 18.7705 20.2249C18.839 20.4648 18.8733 20.7048 18.8733 20.9619C18.9247 22.3673 18.3077 23.9099 17.2793 24.8526Z" fill="#D2001F"/>
</svg>
