<svg width="30" height="30" viewBox="0 0 30 30" fill="none" xmlns="http://www.w3.org/2000/svg">
<path d="M16.8769 9.97504H13.729V13.7682H16.8769C17.9227 13.7682 18.7735 12.9174 18.7735 11.8716C18.7735 10.8259 17.9227 9.97504 16.8769 9.97504Z" fill="#966137"/>
<path d="M25.6042 4.39577C19.7436 -1.46482 10.2572 -1.4657 4.39583 4.39577C-1.46481 10.2563 -1.46575 19.7428 4.39583 25.6042C10.2564 31.4647 19.7428 31.4656 25.6042 25.6042C31.4647 19.7436 31.4657 10.2572 25.6042 4.39577ZM16.877 16.2317H13.729V17.5222H16.2513C16.9316 17.5222 17.4831 18.0737 17.4831 18.754C17.4831 19.4343 16.9316 19.9858 16.2513 19.9858H13.729V21.2567C13.729 21.937 13.1775 22.4885 12.4972 22.4885C11.8169 22.4885 11.2654 21.937 11.2654 21.2567V19.9858H9.99457C9.31427 19.9858 8.76278 19.4343 8.76278 18.754C8.76278 18.0737 9.31427 17.5222 9.99457 17.5222H11.2654V16.2317H9.99457C9.31427 16.2317 8.76278 15.6802 8.76278 14.9999C8.76278 14.3196 9.31427 13.7681 9.99457 13.7681H11.2654V8.74318C11.2654 8.06288 11.8169 7.51139 12.4972 7.51139H16.877C19.2811 7.51139 21.2371 9.46736 21.2371 11.8715C21.2371 14.2758 19.2812 16.2317 16.877 16.2317Z" fill="#966137"/>
</svg>
