<svg width="21" height="20" viewBox="0 0 21 20" fill="none" xmlns="http://www.w3.org/2000/svg">
<path d="M10.5 20C16.0228 20 20.5 15.5228 20.5 10C20.5 4.47715 16.0228 0 10.5 0C4.97715 0 0.5 4.47715 0.5 10C0.5 15.5228 4.97715 20 10.5 20Z" fill="#039BE5"/>
<path d="M5.07581 9.78351L14.7175 6.06601C15.165 5.90434 15.5558 6.17517 15.4108 6.85184L15.4116 6.85101L13.77 14.5852C13.6483 15.1335 13.3225 15.2668 12.8666 15.0085L10.3666 13.166L9.16081 14.3277C9.02747 14.461 8.91497 14.5735 8.65664 14.5735L8.83414 12.0293L13.4675 7.84351C13.6691 7.66601 13.4225 7.56601 13.1566 7.74267L7.43081 11.3477L4.96247 10.5777C4.42664 10.4077 4.41497 10.0418 5.07581 9.78351Z" fill="white"/>
</svg>
