<svg width="24" height="32" viewBox="0 0 24 32" fill="none" xmlns="http://www.w3.org/2000/svg">
<path d="M21.72 14.6293C21.3258 14.1151 20.8459 13.6695 20.4003 13.2238C19.2519 12.1954 17.9493 11.4584 16.8523 10.3786C14.2985 7.87623 13.7329 3.74555 15.3612 0.574707C13.7329 0.968921 12.3103 1.86019 11.0934 2.83715C6.6542 6.40221 4.90595 12.6925 6.99699 18.0915C7.06555 18.2629 7.13411 18.4343 7.13411 18.6571C7.13411 19.0342 6.87702 19.377 6.53422 19.5141C6.14001 19.6855 5.72866 19.5827 5.403 19.3084C5.30514 19.2275 5.22369 19.1286 5.16304 19.017C3.22626 16.5661 2.91774 13.0524 4.22036 10.2415C1.35803 12.5725 -0.201687 16.5146 0.0211298 20.234C0.123968 21.091 0.226806 21.9479 0.518182 22.8049C0.758138 23.8333 1.22091 24.8617 1.7351 25.7701C3.58619 28.7353 6.79132 30.8606 10.2364 31.2891C13.9043 31.7519 17.8293 31.0834 20.6402 28.5467C23.7768 25.7015 24.8737 21.1424 23.2626 17.2345L23.0398 16.7889C22.6798 16.0005 21.72 14.6293 21.72 14.6293ZM16.3039 25.4273C15.8239 25.8387 15.0355 26.2843 14.4185 26.4557C12.4988 27.1413 10.5792 26.1814 9.44798 25.0502C11.4876 24.5703 12.7045 23.062 13.0645 21.5366C13.3558 20.1654 12.8074 19.0342 12.5845 17.7144C12.3789 16.4461 12.4131 15.3663 12.8759 14.1836C13.2016 14.835 13.5444 15.4863 13.9557 16.0005C15.2755 17.7144 17.3494 18.4686 17.795 20.7996C17.8636 21.0395 17.8979 21.2795 17.8979 21.5366C17.9493 22.942 17.3322 24.4846 16.3039 25.4273Z" fill="white"/>
</svg>
